<svg width="83" height="83" viewBox="0 0 83 83" fill="none" xmlns="http://www.w3.org/2000/svg">
<g filter="url(#filter0_d_328_5)">
<rect x="4" width="75" height="75" rx="19" fill="#25262A"/>
<path d="M31.048 58.712H10.6C9.832 58.712 9.272 58.536 8.92 58.184C8.568 57.832 8.392 57.272 8.392 56.504V50.792C8.392 50.376 8.44 50.024 8.536 49.736C8.664 49.448 8.84 49.208 9.064 49.016L14.872 44.12V33.416H10.6C9.832 33.416 9.272 33.24 8.92 32.888C8.568 32.536 8.392 31.976 8.392 31.208V25.4C8.392 24.984 8.44 24.632 8.536 24.344C8.664 24.056 8.84 23.816 9.064 23.624L15.256 18.392C15.416 18.264 15.624 18.168 15.88 18.104C16.168 18.008 16.472 17.96 16.792 17.96H37.24C38.008 17.96 38.568 18.136 38.92 18.488C39.272 18.84 39.448 19.4 39.448 20.168V25.976C39.448 26.392 39.384 26.744 39.256 27.032C39.16 27.32 39 27.56 38.776 27.752L33.064 32.552V43.352H37.24C38.008 43.352 38.568 43.528 38.92 43.88C39.272 44.232 39.448 44.792 39.448 45.56V51.272C39.448 51.688 39.384 52.04 39.256 52.328C39.16 52.616 39 52.856 38.776 53.048L32.536 58.232C32.408 58.36 32.2 58.472 31.912 58.568C31.656 58.664 31.368 58.712 31.048 58.712ZM16.792 53H37.24C37.848 53 38.28 52.872 38.536 52.616C38.824 52.328 38.968 51.88 38.968 51.272V45.56C38.968 44.952 38.824 44.52 38.536 44.264C38.28 43.976 37.848 43.832 37.24 43.832H32.584V27.704H37.24C37.848 27.704 38.28 27.576 38.536 27.32C38.824 27.032 38.968 26.584 38.968 25.976V20.168C38.968 19.56 38.824 19.128 38.536 18.872C38.28 18.584 37.848 18.44 37.24 18.44H16.792C16.184 18.44 15.736 18.584 15.448 18.872C15.192 19.128 15.064 19.56 15.064 20.168V25.976C15.064 26.584 15.192 27.032 15.448 27.32C15.736 27.576 16.184 27.704 16.792 27.704H21.544V43.832H16.792C16.184 43.832 15.736 43.976 15.448 44.264C15.192 44.52 15.064 44.952 15.064 45.56V51.272C15.064 51.88 15.192 52.328 15.448 52.616C15.736 52.872 16.184 53 16.792 53ZM34.648 48.68H19.384V48.2H26.824V23.24H19.384V22.76H34.648V23.24H27.304V48.2H34.648V48.68ZM53.3811 58.712H45.9411C45.1731 58.712 44.6131 58.536 44.2611 58.184C43.9091 57.832 43.7331 57.272 43.7331 56.504V25.4C43.7331 24.984 43.7811 24.632 43.8771 24.344C44.0051 24.056 44.1811 23.816 44.4051 23.624L50.5971 18.392C50.7571 18.264 50.9651 18.168 51.2211 18.104C51.5091 18.008 51.8131 17.96 52.1331 17.96H73.5411C74.3091 17.96 74.8691 18.136 75.2211 18.488C75.5731 18.84 75.7491 19.4 75.7491 20.168V25.88C75.7491 26.296 75.6851 26.648 75.5571 26.936C75.4611 27.224 75.3011 27.464 75.0771 27.656L69.7011 32.12C70.4371 32.12 70.9811 32.296 71.3331 32.648C71.6851 33 71.8611 33.56 71.8611 34.328V40.088C71.8611 40.504 71.7971 40.856 71.6691 41.144C71.5731 41.432 71.4131 41.672 71.1891 41.864L64.9491 47.048C64.8211 47.176 64.6131 47.288 64.3251 47.384C64.0691 47.48 63.7811 47.528 63.4611 47.528H61.7811V51.272C61.7811 51.688 61.7171 52.04 61.5891 52.328C61.4931 52.616 61.3331 52.856 61.1091 53.048L54.8691 58.232C54.7411 58.36 54.5331 58.472 54.2451 58.568C53.9891 58.664 53.7011 58.712 53.3811 58.712ZM59.5731 53C60.1811 53 60.6131 52.872 60.8691 52.616C61.1571 52.328 61.3011 51.88 61.3011 51.272V41.816H69.6531C70.2611 41.816 70.6931 41.688 70.9491 41.432C71.2371 41.144 71.3811 40.696 71.3811 40.088V34.328C71.3811 33.72 71.2371 33.288 70.9491 33.032C70.6931 32.744 70.2611 32.6 69.6531 32.6H61.3011V27.608H73.5411C74.1491 27.608 74.5811 27.48 74.8371 27.224C75.1251 26.936 75.2691 26.488 75.2691 25.88V20.168C75.2691 19.56 75.1251 19.128 74.8371 18.872C74.5811 18.584 74.1491 18.44 73.5411 18.44H52.1331C51.5251 18.44 51.0771 18.584 50.7891 18.872C50.5331 19.128 50.4051 19.56 50.4051 20.168V51.272C50.4051 51.88 50.5331 52.328 50.7891 52.616C51.0771 52.872 51.5251 53 52.1331 53H59.5731ZM55.6371 48.68V22.76H70.9491V23.24H56.1171V36.968H67.0611V37.448H56.1171V48.68H55.6371Z" fill="#F64B56"/>
</g>
<defs>
<filter id="filter0_d_328_5" x="0" y="0" width="83" height="83" filterUnits="userSpaceOnUse" color-interpolation-filters="sRGB">
<feFlood flood-opacity="0" result="BackgroundImageFix"/>
<feColorMatrix in="SourceAlpha" type="matrix" values="0 0 0 0 0 0 0 0 0 0 0 0 0 0 0 0 0 0 127 0" result="hardAlpha"/>
<feOffset dy="4"/>
<feGaussianBlur stdDeviation="2"/>
<feComposite in2="hardAlpha" operator="out"/>
<feColorMatrix type="matrix" values="0 0 0 0 0 0 0 0 0 0 0 0 0 0 0 0 0 0 0.25 0"/>
<feBlend mode="normal" in2="BackgroundImageFix" result="effect1_dropShadow_328_5"/>
<feBlend mode="normal" in="SourceGraphic" in2="effect1_dropShadow_328_5" result="shape"/>
</filter>
</defs>
</svg>
