<svg width="1918" height="746" viewBox="0 0 1918 746" fill="none" xmlns="http://www.w3.org/2000/svg">
<g clip-path="url(#clip0_313_349)">
<mask id="mask0_313_349" style="mask-type:luminance" maskUnits="userSpaceOnUse" x="0" y="0" width="1918" height="746">
<path d="M1918 0H0V746H1918V0Z" fill="white"/>
</mask>
<g mask="url(#mask0_313_349)">
<path d="M-83.0468 501.059L54.6497 478.266" stroke="#2D2E32" stroke-width="1.5"/>
<path d="M-83.0468 501.059L141.785 701.293" stroke="#2D2E32" stroke-width="1.5"/>
<path d="M-83.0468 501.059L279.056 464.185" stroke="#2D2E32" stroke-width="1.5"/>
<path d="M-107.088 672.386L141.785 701.293" stroke="#2D2E32" stroke-width="1.5"/>
<path d="M-52.1589 898.557L141.785 701.293" stroke="#2D2E32" stroke-width="1.5"/>
<path d="M54.6497 478.266L279.056 464.185" stroke="#2D2E32" stroke-width="1.5"/>
<path d="M54.6497 478.266L141.785 701.293" stroke="#2D2E32" stroke-width="1.5"/>
<path d="M54.6496 478.266L-107.088 672.386" stroke="#2D2E32" stroke-width="1.5"/>
<path d="M141.786 701.293L312.94 681.071" stroke="#2D2E32" stroke-width="1.5"/>
<path d="M141.785 701.293L92.3837 940.306" stroke="#2D2E32" stroke-width="1.5"/>
<path d="M92.3836 940.306L-107.088 672.386" stroke="#2D2E32" stroke-width="1.5"/>
<path d="M279.056 464.185L312.94 681.071" stroke="#2D2E32" stroke-width="1.5"/>
<path d="M312.94 681.071L506.285 464.678" stroke="#2D2E32" stroke-width="1.5"/>
<path d="M312.94 681.071L529.927 913.597" stroke="#2D2E32" stroke-width="1.5"/>
<path d="M312.94 681.071L54.6497 478.266" stroke="#2D2E32" stroke-width="1.5"/>
<path d="M506.285 464.678L279.056 464.185" stroke="#2D2E32" stroke-width="1.5"/>
<path d="M506.285 464.678L724.897 530.699" stroke="#2D2E32" stroke-width="1.5"/>
<path d="M506.285 464.678L677.813 743.522" stroke="#2D2E32" stroke-width="1.5"/>
<path d="M529.927 913.597L677.813 743.522" stroke="#2D2E32" stroke-width="1.5"/>
<path d="M724.897 530.699L871.851 479.225" stroke="#2D2E32" stroke-width="1.5"/>
<path d="M724.897 530.699L677.813 743.522" stroke="#2D2E32" stroke-width="1.5"/>
<path d="M677.813 743.522L711.471 896.159" stroke="#2D2E32" stroke-width="1.5"/>
<path d="M711.471 896.159L921.12 726.297" stroke="#2D2E32" stroke-width="1.5"/>
<path d="M711.471 896.159L724.897 530.699" stroke="#2D2E32" stroke-width="1.5"/>
<path d="M861.955 314.372L871.851 479.225" stroke="#2D2E32" stroke-width="1.5"/>
<path d="M861.955 314.372L1061.56 307.205" stroke="#2D2E32" stroke-width="1.5"/>
<path d="M921.12 726.297L919.055 853.903" stroke="#2D2E32" stroke-width="1.5"/>
<path d="M921.12 726.298L1104.87 651.711" stroke="#2D2E32" stroke-width="1.5"/>
<path d="M921.12 726.297L1063.92 528.567" stroke="#2D2E32" stroke-width="1.5"/>
<path d="M921.12 726.297L677.813 743.522" stroke="#2D2E32" stroke-width="1.5"/>
<path d="M1061.56 307.205L1063.92 528.568" stroke="#2D2E32" stroke-width="1.5"/>
<path d="M1061.56 307.205L1284.23 339.43" stroke="#2D2E32" stroke-width="1.5"/>
<path d="M1061.56 307.205L871.851 479.225" stroke="#2D2E32" stroke-width="1.5"/>
<path d="M1063.92 528.567L1104.87 651.711" stroke="#2D2E32" stroke-width="1.5"/>
<path d="M1063.92 528.568L871.851 479.225" stroke="#2D2E32" stroke-width="1.5"/>
<path d="M1063.92 528.568L1274.03 518.297" stroke="#2D2E32" stroke-width="1.5"/>
<path d="M1104.87 651.711L1274.03 518.297" stroke="#2D2E32" stroke-width="1.5"/>
<path d="M1104.87 651.711L919.055 853.904" stroke="#2D2E32" stroke-width="1.5"/>
<path d="M1104.87 651.711L871.851 479.225" stroke="#2D2E32" stroke-width="1.5"/>
<path d="M1094.94 948.272L921.12 726.297" stroke="#2D2E32" stroke-width="1.5"/>
<path d="M1094.94 948.273L1104.87 651.711" stroke="#2D2E32" stroke-width="1.5"/>
<path d="M1316.72 -138.29L1484.53 136.078" stroke="#2D2E32" stroke-width="1.5"/>
<path d="M1316.72 -138.29L1652.8 83.9116" stroke="#2D2E32" stroke-width="1.5"/>
<path d="M1284.23 339.43L1274.03 518.297" stroke="#2D2E32" stroke-width="1.5"/>
<path d="M1284.23 339.43L1489.67 268.653" stroke="#2D2E32" stroke-width="1.5"/>
<path d="M1284.23 339.43L1484.53 136.078" stroke="#2D2E32" stroke-width="1.5"/>
<path d="M1331.24 935.177L1455.31 696.964" stroke="#2D2E32" stroke-width="1.5"/>
<path d="M1532.51 -95.981L1652.8 83.9116" stroke="#2D2E32" stroke-width="1.5"/>
<path d="M1532.51 -95.981L1484.53 136.078" stroke="#2D2E32" stroke-width="1.5"/>
<path d="M1484.53 136.078L1489.67 268.653" stroke="#2D2E32" stroke-width="1.5"/>
<path d="M1484.53 136.078L1652.8 83.9116" stroke="#2D2E32" stroke-width="1.5"/>
<path d="M1489.67 268.653L1541.05 476.347" stroke="#2D2E32" stroke-width="1.5"/>
<path d="M1541.05 476.347L1673.6 486.165" stroke="#2D2E32" stroke-width="1.5"/>
<path d="M1455.31 696.964L1473.14 856.235" stroke="#2D2E32" stroke-width="1.5"/>
<path d="M1729.42 -61.5984L1652.8 83.9116" stroke="#2D2E32" stroke-width="1.5"/>
<path d="M1729.42 -61.5984L1861.49 85.8166" stroke="#2D2E32" stroke-width="1.5"/>
<path d="M1729.42 -61.5984L1484.53 136.078" stroke="#2D2E32" stroke-width="1.5"/>
<path d="M1729.42 -61.5984L1707.47 285.611" stroke="#2D2E32" stroke-width="1.5"/>
<path d="M1707.47 285.611L1860.37 291.286" stroke="#2D2E32" stroke-width="1.5"/>
<path d="M1673.6 486.166L1717.84 662.155" stroke="#2D2E32" stroke-width="1.5"/>
<path d="M1673.6 486.165L1707.47 285.611" stroke="#2D2E32" stroke-width="1.5"/>
<path d="M1673.6 486.165L1860.37 291.286" stroke="#2D2E32" stroke-width="1.5"/>
<path d="M1717.84 662.155L1889.59 707.727" stroke="#2D2E32" stroke-width="1.5"/>
<path d="M1717.84 662.155L1940.04 540.983" stroke="#2D2E32" stroke-width="1.5"/>
<path d="M1717.84 662.155L1541.05 476.347" stroke="#2D2E32" stroke-width="1.5"/>
<path d="M1717.84 662.155L1655.81 918.885" stroke="#2D2E32" stroke-width="1.5"/>
<path d="M1895.17 -92.3442L1861.49 85.8165" stroke="#2D2E32" stroke-width="1.5"/>
<path d="M1861.49 85.8164L1860.37 291.286" stroke="#2D2E32" stroke-width="1.5"/>
<path d="M1861.49 85.8166L1652.8 83.9116" stroke="#2D2E32" stroke-width="1.5"/>
<path d="M1860.37 291.286L2100.48 316.943" stroke="#2D2E32" stroke-width="1.5"/>
<path d="M1860.37 291.286L1940.04 540.983" stroke="#2D2E32" stroke-width="1.5"/>
<path d="M1940.04 540.983L1889.59 707.727" stroke="#2D2E32" stroke-width="1.5"/>
<path d="M1889.59 707.728L1859.74 936.203" stroke="#2D2E32" stroke-width="1.5"/>
<path d="M1889.59 707.727L2137.08 706.115" stroke="#2D2E32" stroke-width="1.5"/>
<path d="M2131.3 -143.845L1861.49 85.8164" stroke="#2D2E32" stroke-width="1.5"/>
<path d="M2122.51 101.402L1861.49 85.8164" stroke="#2D2E32" stroke-width="1.5"/>
<path d="M2122.51 101.403L1895.17 -92.3442" stroke="#2D2E32" stroke-width="1.5"/>
<path d="M2100.48 316.943L1861.49 85.8164" stroke="#2D2E32" stroke-width="1.5"/>
<path d="M2053.79 945.155L1889.59 707.728" stroke="#2D2E32" stroke-width="1.5"/>
<path d="M54.6497 484.926C58.3278 484.926 61.3094 481.944 61.3094 478.266C61.3094 474.587 58.3278 471.605 54.6497 471.605C50.9716 471.605 47.99 474.587 47.99 478.266C47.99 481.944 50.9716 484.926 54.6497 484.926Z" fill="#2D2E32"/>
<path d="M141.786 707.954C145.464 707.954 148.445 704.972 148.445 701.293C148.445 697.615 145.464 694.633 141.786 694.633C138.107 694.633 135.126 697.615 135.126 701.293C135.126 704.972 138.107 707.954 141.786 707.954Z" fill="#2D2E32"/>
<path d="M279.056 470.846C282.734 470.846 285.715 467.864 285.715 464.185C285.715 460.507 282.734 457.524 279.056 457.524C275.378 457.524 272.396 460.507 272.396 464.185C272.396 467.864 275.378 470.846 279.056 470.846Z" fill="#2D2E32"/>
<path d="M312.94 687.732C316.618 687.732 319.6 684.75 319.6 681.071C319.6 677.393 316.618 674.411 312.94 674.411C309.262 674.411 306.281 677.393 306.281 681.071C306.281 684.75 309.262 687.732 312.94 687.732Z" fill="#2D2E32"/>
<path d="M506.285 471.339C509.963 471.339 512.945 468.357 512.945 464.678C512.945 460.999 509.963 458.017 506.285 458.017C502.607 458.017 499.626 460.999 499.626 464.678C499.626 468.357 502.607 471.339 506.285 471.339Z" fill="#2D2E32"/>
<path d="M724.897 537.36C728.576 537.36 731.557 534.378 731.557 530.699C731.557 527.02 728.576 524.038 724.897 524.038C721.219 524.038 718.238 527.02 718.238 530.699C718.238 534.378 721.219 537.36 724.897 537.36Z" fill="#2D2E32"/>
<path d="M677.813 750.183C681.491 750.183 684.473 747.201 684.473 743.522C684.473 739.843 681.491 736.861 677.813 736.861C674.135 736.861 671.154 739.843 671.154 743.522C671.154 747.201 674.135 750.183 677.813 750.183Z" fill="#2D2E32"/>
<path d="M861.955 321.033C865.633 321.033 868.614 318.051 868.614 314.372C868.614 310.694 865.633 307.711 861.955 307.711C858.277 307.711 855.295 310.694 855.295 314.372C855.295 318.051 858.277 321.033 861.955 321.033Z" fill="#2D2E32"/>
<path d="M871.851 485.886C875.529 485.886 878.511 482.904 878.511 479.225C878.511 475.546 875.529 472.564 871.851 472.564C868.173 472.564 865.191 475.546 865.191 479.225C865.191 482.904 868.173 485.886 871.851 485.886Z" fill="#2D2E32"/>
<path d="M921.12 732.958C924.798 732.958 927.779 729.976 927.779 726.297C927.779 722.619 924.798 719.637 921.12 719.637C917.441 719.637 914.46 722.619 914.46 726.297C914.46 729.976 917.441 732.958 921.12 732.958Z" fill="#2D2E32"/>
<path d="M1061.56 313.866C1065.24 313.866 1068.22 310.884 1068.22 307.205C1068.22 303.527 1065.24 300.545 1061.56 300.545C1057.88 300.545 1054.9 303.527 1054.9 307.205C1054.9 310.884 1057.88 313.866 1061.56 313.866Z" fill="#2D2E32"/>
<path d="M1063.92 535.228C1067.6 535.228 1070.58 532.246 1070.58 528.567C1070.58 524.889 1067.6 521.907 1063.92 521.907C1060.24 521.907 1057.26 524.889 1057.26 528.567C1057.26 532.246 1060.24 535.228 1063.92 535.228Z" fill="#2D2E32"/>
<path d="M1104.87 658.372C1108.55 658.372 1111.53 655.39 1111.53 651.711C1111.53 648.032 1108.55 645.05 1104.87 645.05C1101.2 645.05 1098.21 648.032 1098.21 651.711C1098.21 655.39 1101.2 658.372 1104.87 658.372Z" fill="#2D2E32"/>
<path d="M1284.23 346.09C1287.91 346.09 1290.89 343.108 1290.89 339.43C1290.89 335.751 1287.91 332.769 1284.23 332.769C1280.56 332.769 1277.57 335.751 1277.57 339.43C1277.57 343.108 1280.56 346.09 1284.23 346.09Z" fill="#2D2E32"/>
<path d="M1274.03 524.957C1277.71 524.957 1280.69 521.975 1280.69 518.297C1280.69 514.618 1277.71 511.636 1274.03 511.636C1270.35 511.636 1267.37 514.618 1267.37 518.297C1267.37 521.975 1270.35 524.957 1274.03 524.957Z" fill="#2D2E32"/>
<path d="M1484.53 142.739C1488.21 142.739 1491.19 139.757 1491.19 136.078C1491.19 132.4 1488.21 129.417 1484.53 129.417C1480.85 129.417 1477.87 132.4 1477.87 136.078C1477.87 139.757 1480.85 142.739 1484.53 142.739Z" fill="#2D2E32"/>
<path d="M1489.67 275.314C1493.35 275.314 1496.33 272.332 1496.33 268.653C1496.33 264.975 1493.35 261.992 1489.67 261.992C1486 261.992 1483.01 264.975 1483.01 268.653C1483.01 272.332 1486 275.314 1489.67 275.314Z" fill="#2D2E32"/>
<path d="M1541.05 483.008C1544.72 483.008 1547.71 480.026 1547.71 476.347C1547.71 472.669 1544.72 469.687 1541.05 469.687C1537.37 469.687 1534.39 472.669 1534.39 476.347C1534.39 480.026 1537.37 483.008 1541.05 483.008Z" fill="#2D2E32"/>
<path d="M1455.31 703.624C1458.99 703.624 1461.97 700.642 1461.97 696.964C1461.97 693.285 1458.99 690.303 1455.31 690.303C1451.63 690.303 1448.65 693.285 1448.65 696.964C1448.65 700.642 1451.63 703.624 1455.31 703.624Z" fill="#2D2E32"/>
<path d="M1652.8 90.5724C1656.47 90.5724 1659.46 87.5903 1659.46 83.9117C1659.46 80.2331 1656.47 77.251 1652.8 77.251C1649.12 77.251 1646.14 80.2331 1646.14 83.9117C1646.14 87.5903 1649.12 90.5724 1652.8 90.5724Z" fill="#2D2E32"/>
<path d="M1707.47 292.272C1711.15 292.272 1714.13 289.29 1714.13 285.611C1714.13 281.933 1711.15 278.951 1707.47 278.951C1703.79 278.951 1700.81 281.933 1700.81 285.611C1700.81 289.29 1703.79 292.272 1707.47 292.272Z" fill="#2D2E32"/>
<path d="M1673.6 492.826C1677.28 492.826 1680.26 489.844 1680.26 486.166C1680.26 482.487 1677.28 479.505 1673.6 479.505C1669.92 479.505 1666.94 482.487 1666.94 486.166C1666.94 489.844 1669.92 492.826 1673.6 492.826Z" fill="#2D2E32"/>
<path d="M1717.84 668.816C1721.51 668.816 1724.5 665.833 1724.5 662.155C1724.5 658.476 1721.51 655.494 1717.84 655.494C1714.16 655.494 1711.18 658.476 1711.18 662.155C1711.18 665.833 1714.16 668.816 1717.84 668.816Z" fill="#2D2E32"/>
<path d="M1861.49 92.4772C1865.16 92.4772 1868.15 89.4951 1868.15 85.8165C1868.15 82.1379 1865.16 79.1558 1861.49 79.1558C1857.81 79.1558 1854.83 82.1379 1854.83 85.8165C1854.83 89.4951 1857.81 92.4772 1861.49 92.4772Z" fill="#2D2E32"/>
<path d="M1860.37 297.947C1864.04 297.947 1867.03 294.965 1867.03 291.286C1867.03 287.608 1864.04 284.625 1860.37 284.625C1856.69 284.625 1853.71 287.608 1853.71 291.286C1853.71 294.965 1856.69 297.947 1860.37 297.947Z" fill="#2D2E32"/>
<path d="M1889.59 714.388C1893.27 714.388 1896.25 711.406 1896.25 707.728C1896.25 704.049 1893.27 701.067 1889.59 701.067C1885.91 701.067 1882.93 704.049 1882.93 707.728C1882.93 711.406 1885.91 714.388 1889.59 714.388Z" fill="#2D2E32"/>
</g>
</g>
<defs>
<clipPath id="clip0_313_349">
<rect width="1918" height="746" fill="white"/>
</clipPath>
</defs>
</svg>
