<svg width="83" height="83" viewBox="0 0 83 83" fill="none" xmlns="http://www.w3.org/2000/svg">
<g filter="url(#filter0_d_328_5)">
<rect x="4" width="75" height="75" rx="19" fill="#25262A"/>
<path d="M25.4 64.66C24.7767 64.83 23.785 65 22.425 65.17C21.1217 65.34 19.8183 65.425 18.515 65.425C17.2117 65.425 16.05 65.3117 15.03 65.085C14.0667 64.915 13.245 64.575 12.565 64.065C11.885 63.555 11.375 62.8467 11.035 61.94C10.695 61.0333 10.525 59.8433 10.525 58.37V13.49C11.1483 13.3767 12.14 13.235 13.5 13.065C14.86 12.8383 16.1633 12.725 17.41 12.725C18.7133 12.725 19.8467 12.8383 20.81 13.065C21.83 13.235 22.68 13.575 23.36 14.085C24.04 14.595 24.55 15.3033 24.89 16.21C25.23 17.1167 25.4 18.3067 25.4 19.78V64.66ZM72.65 13.49C73.0467 14.1133 73.3867 14.9633 73.67 16.04C74.01 17.06 74.18 18.1367 74.18 19.27C74.18 21.48 73.6984 23.0667 72.735 24.03C71.8284 24.9367 70.5817 25.39 68.995 25.39H51.145V34.995H69.76C70.2134 35.6183 70.5817 36.44 70.865 37.46C71.205 38.48 71.375 39.5567 71.375 40.69C71.375 42.8433 70.8934 44.4017 69.93 45.365C69.0234 46.2717 67.7767 46.725 66.19 46.725H51.315V64.66C50.6917 64.83 49.7 65 48.34 65.17C47.0367 65.34 45.7334 65.425 44.43 65.425C43.1267 65.425 41.965 65.3117 40.945 65.085C39.9817 64.915 39.16 64.575 38.48 64.065C37.8 63.555 37.29 62.8467 36.95 61.94C36.61 61.0333 36.44 59.8433 36.44 58.37V21.395C36.44 18.9583 37.1484 17.0317 38.565 15.615C39.9817 14.1983 41.9084 13.49 44.345 13.49H72.65Z" fill="#F64B56"/>
</g>
<defs>
<filter id="filter0_d_328_5" x="0" y="0" width="83" height="83" filterUnits="userSpaceOnUse" color-interpolation-filters="sRGB">
<feFlood flood-opacity="0" result="BackgroundImageFix"/>
<feColorMatrix in="SourceAlpha" type="matrix" values="0 0 0 0 0 0 0 0 0 0 0 0 0 0 0 0 0 0 127 0" result="hardAlpha"/>
<feOffset dy="4"/>
<feGaussianBlur stdDeviation="2"/>
<feComposite in2="hardAlpha" operator="out"/>
<feColorMatrix type="matrix" values="0 0 0 0 0 0 0 0 0 0 0 0 0 0 0 0 0 0 0.25 0"/>
<feBlend mode="normal" in2="BackgroundImageFix" result="effect1_dropShadow_328_5"/>
<feBlend mode="normal" in="SourceGraphic" in2="effect1_dropShadow_328_5" result="shape"/>
</filter>
</defs>
</svg>
